<svg xmlns="http://www.w3.org/2000/svg" xmlns:xlink="http://www.w3.org/1999/xlink" width="500" zoomAndPan="magnify" viewBox="0 0 375 374.999991" height="500" preserveAspectRatio="xMidYMid meet" version="1.0"><defs><clipPath id="f9c1fe0578"><path d="M 120 99 L 279.640625 99 L 279.640625 275.855469 L 120 275.855469 Z M 120 99 " clip-rule="nonzero"/></clipPath><clipPath id="053a3496d5"><path d="M 304.429688 164.074219 L 337.429688 164.074219 L 337.429688 195.574219 L 304.429688 195.574219 Z M 304.429688 164.074219 " clip-rule="nonzero"/></clipPath><clipPath id="3fb2b1aee2"><path d="M 37.5 164.074219 L 70.5 164.074219 L 70.5 195.574219 L 37.5 195.574219 Z M 37.5 164.074219 " clip-rule="nonzero"/></clipPath></defs><rect x="-37.5" width="450" fill="#ffffff" y="-37.499999" height="449.999989" fill-opacity="1"/><rect x="-37.5" width="450" fill="#d97757" y="-37.499999" height="449.999989" fill-opacity="1"/><g clip-path="url(#f9c1fe0578)"><path fill="#ffffff" d="M 241.078125 228.0625 L 247.324219 223.570312 C 211.390625 215.640625 169.210938 189.882812 149.140625 158.652344 C 142.261719 147.914062 134.332031 131.492188 141.417969 119.140625 C 150.683594 103.066406 179.597656 104.542969 195.8125 107.558594 C 176.792969 102.925781 145.769531 101.101562 135.453125 119.070312 C 127.945312 132.054688 135.453125 149.457031 142.753906 160.828125 C 163.246094 192.621094 205.003906 218.589844 241.078125 228.0625 Z M 254.484375 218.378906 L 279.960938 199.917969 L 230.410156 199.988281 L 215.179688 152.828125 L 202.757812 191.355469 C 161.914062 165.460938 146.261719 135.492188 153.632812 123.699219 C 164.859375 105.804688 213.285156 118.859375 238.480469 131.210938 C 221.148438 121.734375 161.84375 98.855469 147.875 123.070312 C 142.332031 132.683594 149.28125 147.210938 154.613281 155.492188 C 174.476562 186.375 218.410156 212.480469 254.484375 218.378906 Z M 170.894531 199.988281 C 135.242188 172.199219 117.207031 137.457031 129.769531 115.769531 C 134.261719 107.910156 142.332031 102.714844 152.648438 99.980469 C 139.875 102.367188 130.050781 108.050781 124.714844 117.175781 C 112.433594 138.507812 128.714844 172.058594 162.125 199.917969 L 150.332031 199.847656 L 190.476562 228.90625 L 175.105469 276.136719 L 215.179688 246.941406 L 255.1875 276.136719 L 243.675781 240.976562 L 241.710938 235.011719 C 216.585938 228.765625 191.390625 215.921875 170.894531 199.988281 Z M 170.894531 199.988281 " fill-opacity="1" fill-rule="evenodd"/></g><g clip-path="url(#053a3496d5)"><path fill="#ffffff" d="M 320.964844 171.773438 L 322.597656 176.84375 L 323.128906 178.484375 L 324.851562 178.480469 L 330.179688 178.460938 L 325.863281 181.585938 L 324.464844 182.597656 L 325.003906 184.234375 L 326.664062 189.304688 L 322.359375 186.167969 L 320.964844 185.144531 L 319.570312 186.164062 L 315.269531 189.304688 L 316.925781 184.234375 L 317.46875 182.597656 L 316.0625 181.585938 L 311.757812 178.464844 L 317.085938 178.480469 L 318.808594 178.484375 L 319.34375 176.847656 L 320.964844 171.773438 M 320.964844 164.078125 L 317.082031 176.125 L 304.429688 176.09375 L 314.679688 183.507812 L 310.746094 195.53125 L 320.964844 188.070312 L 331.183594 195.527344 L 327.246094 183.507812 L 337.5 176.09375 L 324.851562 176.125 Z M 320.964844 164.078125 " fill-opacity="1" fill-rule="nonzero"/></g><g clip-path="url(#3fb2b1aee2)"><path fill="#ffffff" d="M 54.035156 171.773438 L 55.667969 176.84375 L 56.199219 178.484375 L 57.925781 178.480469 L 63.253906 178.460938 L 58.933594 181.585938 L 57.539062 182.597656 L 58.078125 184.234375 L 59.734375 189.304688 L 55.429688 186.167969 L 54.035156 185.144531 L 52.644531 186.164062 L 48.339844 189.304688 L 50 184.234375 L 50.539062 182.597656 L 49.136719 181.585938 L 44.828125 178.464844 L 50.15625 178.480469 L 51.878906 178.484375 L 52.414062 176.847656 L 54.035156 171.773438 M 54.035156 164.078125 L 50.152344 176.125 L 37.5 176.09375 L 47.75 183.507812 L 43.816406 195.53125 L 54.035156 188.070312 L 64.253906 195.527344 L 60.320312 183.507812 L 70.570312 176.09375 L 57.925781 176.125 Z M 54.035156 164.078125 " fill-opacity="1" fill-rule="nonzero"/></g></svg>